HIERARCHY
ROOT Hips
{
	OFFSET -0.179506 -22.333345 2.821913
	CHANNELS 6 Xposition Yposition Zposition Zrotation Yrotation Xrotation 
	JOINT LeftUpLeg
	{
		OFFSET 6.951974 -9.140623 -0.681533
		CHANNELS 3 Zrotation Yrotation Xrotation
		JOINT LeftLeg
		{
			OFFSET 3.427654 -37.519855 -0.449580
			CHANNELS 3 Zrotation Yrotation Xrotation
			JOINT LeftFoot
			{
				OFFSET -1.359570 -39.796059 -4.369333
				CHANNELS 3 Zrotation Yrotation Xrotation
				JOINT LeftToe
				{
					OFFSET 2.635814 -5.579078 11.928840
					CHANNELS 3 Zrotation Yrotation Xrotation
					End Site
					{
						OFFSET 0.000000 0.000000 0.000000
					}
				}
			}
		}
	}
	JOINT RightUpLeg
	{
		OFFSET -6.767048 -9.052170 -0.431982
		CHANNELS 3 Zrotation Yrotation Xrotation
		JOINT RightLeg
		{
			OFFSET -3.829005 -38.256897 -0.885003
			CHANNELS 3 Zrotation Yrotation Xrotation
			JOINT RightFoot
			{
				OFFSET 1.577377 -39.841461 -4.231180
				CHANNELS 3 Zrotation Yrotation Xrotation
				JOINT RightToe
				{
					OFFSET -2.537174 -4.814398 12.334795
					CHANNELS 3 Zrotation Yrotation Xrotation
					End Site
					{
						OFFSET 0.000000 0.000000 0.000000
					}
				}
			}
		}
	}
	JOINT Spine
	{
		OFFSET -0.253288 10.896323 -2.669631
		CHANNELS 3 Zrotation Yrotation Xrotation
		JOINT Spine1
		{
			OFFSET 0.548704 13.518043 0.109247
			CHANNELS 3 Zrotation Yrotation Xrotation
			JOINT Spine2
			{
				OFFSET 0.145701 5.292222 2.542457
				CHANNELS 3 Zrotation Yrotation Xrotation
				JOINT Neck
				{
					OFFSET -0.277840 21.387037 -4.285703
					CHANNELS 3 Zrotation Yrotation Xrotation
					JOINT Head
					{
						OFFSET 0.515184 6.496960 5.134897
						CHANNELS 3 Zrotation Yrotation Xrotation
						End Site
						{
							OFFSET 0.000000 0.000000 0.000000
						}
					}
				}
				JOINT LeftShoulder
				{
					OFFSET 7.884473 12.174932 -3.408961
					CHANNELS 3 Zrotation Yrotation Xrotation
					JOINT LeftArm
					{
						OFFSET 9.097692 3.046888 -0.886815
						CHANNELS 3 Zrotation Yrotation Xrotation
						JOINT LeftForeArm
						{
							OFFSET 25.961220 -1.277207 -2.745643
							CHANNELS 3 Zrotation Yrotation Xrotation
							JOINT LeftHand
							{
								OFFSET 24.923361 0.898606 -0.117091
								CHANNELS 3 Zrotation Yrotation Xrotation
								End Site
								{
									OFFSET 0.000000 0.000000 0.000000
								}
							}
						}
					}
				}
				JOINT RightShoulder
				{
					OFFSET -8.175920 11.883285 -3.861528
					CHANNELS 3 Zrotation Yrotation Xrotation
					JOINT RightArm
					{
						OFFSET -9.601238 3.255117 -0.914307
						CHANNELS 3 Zrotation Yrotation Xrotation
						JOINT RightForeArm
						{
							OFFSET -25.374195 -1.332924 -2.140099
							CHANNELS 3 Zrotation Yrotation Xrotation
							JOINT RightHand
							{
								OFFSET -25.529810 0.777228 -0.555919
								CHANNELS 3 Zrotation Yrotation Xrotation
								End Site
								{
									OFFSET 0.000000 0.000000 0.000000
								}
							}
						}
					}
				}
			}
		}
	}
}
MOTION
Frames: 6
Frame Time: 0.033333
3.255827 60.988777 100.369385 177.665978 1.052640 84.508213 5.024435 4.657955 10.137550 -2.282819 -1.741363 -0.348719 2.387287 8.465040 -4.626959 nan nan nan -1.661236 -3.400868 5.898816 2.215762 0.487946 0.978816 8.542805 -0.855171 -0.048026 nan nan nan -0.391598 1.116838 6.706352 2.263766 -1.833542 2.350775 1.077985 -0.060014 1.879648 0.759375 -1.061265 -1.257019 -0.362850 -5.577858 5.091657 -26.012444 3.792805 0.760793 -58.832015 -6.799617 10.725085 4.529207 -22.514830 12.841830 -6.187487 -5.642897 -1.716319 27.920048 0.082260 1.807896 58.076586 7.376133 10.662116 -14.237811 18.148394 -9.000651 4.045907 2.475358 -6.730172 
3.219576 61.197048 100.397675 177.880143 1.312777 84.677718 5.222271 4.492457 10.226448 -2.150356 -1.905367 -0.601058 2.231552 8.340769 -4.739591 nan nan nan -1.400742 -3.610219 6.168898 2.176580 0.611368 0.438357 8.667330 -0.946533 -0.017934 nan nan nan -0.048117 0.875751 5.751505 2.343557 -1.900797 2.918110 0.949521 0.027223 1.929802 0.660167 -1.107110 -0.910740 -0.350044 -5.595619 4.765473 -26.168183 3.739734 0.772050 -58.735833 -6.702664 10.863007 4.891145 -22.460021 13.127145 -6.745180 -5.576260 -1.145038 27.923459 0.048053 1.945257 58.074362 7.364272 10.502953 -14.318486 18.119335 -9.144944 4.424696 2.613742 -6.762677 
3.209365 61.174435 100.411713 177.908484 1.317181 84.706952 5.200672 4.464579 10.174604 -2.163830 -1.909228 -0.581062 2.251337 8.301554 -4.744454 nan nan nan -1.373457 -3.599950 6.148219 2.141351 0.596398 0.423368 8.712832 -0.927797 -0.061237 nan nan nan -0.014737 0.856139 5.691564 2.333831 -1.899825 2.945323 0.925543 0.034315 1.942137 0.660535 -1.117195 -0.946541 -0.358078 -5.631527 4.741722 -26.125818 3.701991 0.803184 -58.723116 -6.695896 10.908456 4.981189 -22.539864 13.306212 -7.058637 -5.526119 -1.005397 27.880659 0.064378 1.937081 58.144052 7.374776 10.473176 -14.261204 18.133680 -9.153180 4.714859 2.682424 -6.869146 
3.187341 61.210270 100.421753 177.866262 1.317664 84.657855 5.176400 4.083678 10.397404 -2.306275 -1.633878 -0.848938 2.448895 8.500878 -4.621134 nan nan nan -1.390485 -3.499326 6.300448 2.185838 0.547165 0.281488 8.806632 -0.918518 0.034696 nan nan nan 0.006568 0.821702 5.581650 2.316985 -1.886717 3.155254 0.981155 0.089976 1.837116 0.411123 -1.347028 -0.678326 -0.187903 -5.463583 4.473017 -25.940985 3.843563 0.931285 -59.496429 -7.088690 10.267230 5.931796 -23.021707 10.519932 -7.907236 -6.282001 -5.136256 27.686209 0.119746 2.327261 58.447711 7.550474 10.550059 -14.781674 18.025766 -9.506515 4.357761 2.583269 -7.608165 
3.171364 61.215958 100.426132 177.808095 1.290378 84.655896 5.131562 4.110552 10.441450 -2.269909 -1.582515 -0.916536 2.427005 8.521339 -4.572344 nan nan nan -1.403482 -3.490586 6.290422 2.175104 0.615963 0.313520 8.832865 -0.836618 0.075279 nan nan nan 0.007659 0.837280 5.555983 2.301549 -1.880716 3.180008 0.978324 0.083146 1.840133 0.424615 -1.286458 -0.776893 -0.238553 -5.382886 4.634729 -25.942208 3.802752 0.878912 -59.587732 -7.075869 10.352602 5.673113 -22.713778 10.457883 -7.510033 -6.542585 -5.143436 27.672131 0.128733 2.341107 58.418082 7.604479 10.610573 -14.539478 18.083982 -9.484841 4.608356 2.872492 -7.798910 
3.108171 61.207077 100.450562 177.406506 0.965759 85.101397 4.582106 3.870988 10.127800 -2.252212 -1.292572 -1.156512 2.673644 8.834053 -4.337822 nan nan nan -1.796163 -3.053196 5.671651 2.310322 0.624024 0.503610 8.953057 -0.585213 0.063607 nan nan nan -0.308702 1.043580 4.768070 2.377759 -1.796409 3.439754 0.960975 0.180561 1.814215 0.387641 -1.203514 -0.518579 -0.297191 -5.267891 4.386510 -26.075676 3.696281 0.814519 -59.712706 -7.172880 10.462227 5.858194 -21.990984 9.732561 -7.112223 -6.865300 -5.387863 27.735284 0.105259 2.621721 58.456933 7.762427 10.742723 -14.903502 17.952748 -9.595958 4.318612 2.972926 -7.744759 
